# Blender v2.81 (sub 16) OBJ File: 'Pepparkak-Hjärta.blend'
# www.blender.org
mtllib Pepparkak-Hjärta.mtl
o Plane
v -0.286054 0.000000 -0.708371
v -0.133065 0.000000 -0.711022
v -0.393648 0.000000 -0.646889
v -0.148583 0.000000 0.003597
v -0.448300 0.000000 -0.496598
v -0.274964 0.000000 -0.143278
v -0.465378 0.000000 -0.421452
v -0.380851 0.000000 -0.274783
v -0.286054 0.057103 -0.708371
v -0.133065 0.057103 -0.711022
v -0.393648 0.057103 -0.646889
v -0.148583 0.057103 0.003597
v -0.448300 0.057103 -0.496598
v -0.274964 0.057103 -0.143278
v -0.465378 0.057103 -0.421452
v -0.380851 0.057103 -0.274783
v 0.286054 0.000000 -0.708371
v 0.000000 0.000000 0.200000
v 0.133065 0.000000 -0.711022
v 0.000000 0.000000 -0.600000
v 0.393648 0.000000 -0.646889
v 0.148583 0.000000 0.003597
v 0.448300 0.000000 -0.496598
v 0.274964 0.000000 -0.143278
v 0.465378 0.000000 -0.421452
v 0.380851 0.000000 -0.274783
v 0.286054 0.057103 -0.708371
v 0.000000 0.057103 0.200000
v 0.133065 0.057103 -0.711022
v 0.000000 0.057103 -0.600000
v 0.393648 0.057103 -0.646889
v 0.148583 0.057103 0.003597
v 0.448300 0.057103 -0.496598
v 0.274964 0.057103 -0.143278
v 0.465378 0.057103 -0.421452
v 0.380851 0.057103 -0.274783
vt 0.000000 0.000000
vt 0.000000 1.000000
vt 1.000000 1.000000
vt 1.000000 0.000000
vt 1.000000 0.000000
vt 0.000000 0.000000
vt 1.000000 0.000000
vt 0.000000 0.000000
vt 1.000000 0.000000
vt 0.000000 0.000000
vt 0.000000 0.000000
vt 1.000000 0.000000
vt 1.000000 1.000000
vt 0.000000 1.000000
vt 0.000000 0.000000
vt 1.000000 0.000000
vt 0.000000 0.000000
vt 1.000000 0.000000
vt 0.000000 0.000000
vt 1.000000 0.000000
vt 0.000000 0.000000
vt 0.000000 1.000000
vt 0.000000 0.000000
vt 1.000000 0.000000
vt 0.000000 0.000000
vt 1.000000 0.000000
vt 0.000000 0.000000
vt 1.000000 0.000000
vt 0.000000 0.000000
vt 0.000000 1.000000
vt 1.000000 0.000000
vt 0.000000 0.000000
vt 1.000000 0.000000
vt 0.000000 0.000000
vt 1.000000 0.000000
vt 0.000000 0.000000
vn -0.2002 -0.6552 -0.7284
vn 0.2565 -0.6364 -0.7275
vn -0.2926 -0.8441 -0.4493
vn -0.5647 -0.4657 0.6814
vn -0.5446 -0.7142 0.4396
vn -0.5893 -0.6372 -0.4966
vn -0.5462 -0.7035 0.4547
vn -0.6914 -0.6933 -0.2034
vn -0.5972 -0.6901 0.4089
vn -0.7651 -0.6335 0.1154
vn -0.2002 0.6552 -0.7284
vn -0.5647 0.4657 0.6814
vn -0.2926 0.8441 -0.4493
vn 0.2565 0.6364 -0.7275
vn -0.5893 0.6372 -0.4966
vn -0.5446 0.7142 0.4396
vn -0.6914 0.6933 -0.2034
vn -0.5462 0.7035 0.4547
vn -0.7651 0.6335 0.1154
vn -0.5972 0.6901 0.4089
vn 0.2002 -0.6552 -0.7284
vn -0.2565 -0.6364 -0.7275
vn 0.5893 -0.6372 -0.4966
vn 0.5446 -0.7142 0.4396
vn 0.6914 -0.6933 -0.2034
vn 0.5462 -0.7035 0.4547
vn 0.7651 -0.6335 0.1154
vn 0.5972 -0.6901 0.4089
vn 0.2002 0.6552 -0.7284
vn -0.2565 0.6364 -0.7275
vn 0.5446 0.7142 0.4396
vn 0.5893 0.6372 -0.4966
vn 0.5462 0.7035 0.4547
vn 0.6914 0.6933 -0.2034
vn 0.5972 0.6901 0.4089
vn 0.7651 0.6335 0.1154
usemtl None
s 1
f 1/1/1 2/2/2 20/3/3 18/4/4
f 18/4/4 4/5/5 3/6/6 1/1/1
f 4/5/5 6/7/7 5/8/8 3/6/6
f 6/7/7 8/9/9 7/10/10 5/8/8
f 9/11/11 28/12/12 30/13/13 10/14/14
f 28/12/12 9/11/11 11/15/15 12/16/16
f 12/16/16 11/15/15 13/17/17 14/18/18
f 14/18/18 13/17/17 15/19/19 16/20/20
f 3/6/6 5/8/8 13/17/17 11/15/15
f 1/1/1 3/6/6 11/15/15 9/11/11
f 20/3/3 2/2/2 10/14/14 30/13/13
f 7/10/10 8/9/9 16/20/20 15/19/19
f 2/2/2 1/1/1 9/11/11 10/14/14
f 8/9/9 6/7/7 14/18/18 16/20/20
f 6/7/7 4/5/5 12/16/16 14/18/18
f 4/5/5 18/4/4 28/12/12 12/16/16
f 5/8/8 7/10/10 15/19/19 13/17/17
f 17/21/21 18/4/4 20/3/3 19/22/22
f 18/4/4 17/21/21 21/23/23 22/24/24
f 22/24/24 21/23/23 23/25/25 24/26/26
f 24/26/26 23/25/25 25/27/27 26/28/28
f 27/29/29 29/30/30 30/13/13 28/12/12
f 28/12/12 32/31/31 31/32/32 27/29/29
f 32/31/31 34/33/33 33/34/34 31/32/32
f 34/33/33 36/35/35 35/36/36 33/34/34
f 18/4/4 28/12/12 30/13/13 20/3/3
f 21/23/23 31/32/32 33/34/34 23/25/25
f 17/21/21 27/29/29 31/32/32 21/23/23
f 20/3/3 30/13/13 29/30/30 19/22/22
f 25/27/27 35/36/36 36/35/35 26/28/28
f 19/22/22 29/30/30 27/29/29 17/21/21
f 26/28/28 36/35/35 34/33/33 24/26/26
f 24/26/26 34/33/33 32/31/31 22/24/24
f 22/24/24 32/31/31 28/12/12 18/4/4
f 23/25/25 33/34/34 35/36/36 25/27/27
